<svg width="2291" height="1244" viewBox="0 0 2291 1244" fill="none" xmlns="http://www.w3.org/2000/svg">
<path fill-rule="evenodd" clip-rule="evenodd" d="M643.762 1233.32L646.851 1230.57C646.862 1230.56 650.87 1227.45 651.204 1227.2C652.522 1198.62 647.266 1131.81 652.822 1109.04C667.342 1106.55 749.422 1105.76 758.867 1109.67C760.607 1112.01 760.632 1110.49 761.691 1115.01L762.399 1230.38L825.085 1230.63L825.184 944.929L762.26 944.781L760.888 1053.03L654.034 1054.04C651.471 1034.11 652.667 913.824 655.321 893.792C700.178 888.365 818.458 898.539 851.212 891.717L851.416 833.723C851.672 805.726 855.09 812.26 776.074 812.26C642.007 812.26 666.132 822.616 666.135 770.3L666.131 538.184C666.098 485.406 664.071 441.629 666.797 389.469L835.871 388.413C837.58 373.509 839.755 325.439 834.282 316.265C821.106 307.849 695.778 316.7 666.711 313.179L666.213 5.61757C642.521 3.76409 626.003 6.31376 603.576 2.29121C565.751 -4.49342 524.566 4.10424 493.897 23.9154C483.908 30.3674 462.026 52.396 456.724 52.681C428.729 54.1837 393.043 44.0671 348.977 76.8254C322.989 96.1452 303.92 120.63 294.596 156.902C280.611 157.198 213.394 129.251 154.902 178.351C115.41 211.502 103.433 237.958 98.8903 300.923C63.7542 318.854 51.8302 323.559 30.13 352.022C-10.0585 404.735 -6.89351 484.028 40.4213 533.5C51.126 544.692 60.3968 552.194 74.5923 560.219C87.7553 567.661 108.559 571.611 117.312 577.278C105.321 592.366 103.497 615.609 97.8138 636.785C6.57603 658.923 -44.6551 800.817 52.1768 881.071C80.177 904.278 107.007 912.273 152.326 913.07C166.625 942.647 166.521 947.682 189.569 970.735C204.212 985.381 227.676 999.772 249.715 1005.51C339.037 1028.79 391.627 960.592 394.916 959.602C444.662 961.612 464.211 963.114 504.866 945.638L512.859 989.431C515.88 1005.37 517.27 1020.24 517.471 1036.59C517.916 1072.81 520.517 1098.61 496.034 1120.49C456.983 1155.39 364.581 1136.89 333.665 1168.47C314.063 1188.49 318.199 1232.15 339.962 1240.82C358.859 1248.35 418.295 1239.65 441.241 1239.35C510.025 1238.46 577.874 1236.11 643.762 1233.32Z" fill="white"/>
<path fill-rule="evenodd" clip-rule="evenodd" d="M568.344 894.573C576.241 852.881 571.039 539.86 571.414 469.772C571.592 436.574 571.506 397.63 569.698 364.669C567.938 332.578 562.696 293.281 569.07 260.835C572.631 242.707 569.196 72.3254 566.317 51.5096C524.217 47.9656 490.616 103.645 475.521 106.363C455.503 109.967 399.058 84.9486 361.17 135.457C349.141 151.493 342.162 166.174 340.983 188.767C340.285 202.162 341.794 211.297 334.853 219.16C304.701 253.319 271.184 169.994 197.892 211.508C168.176 228.339 160.416 245.326 152.063 276.052C141.298 315.648 180.463 333.198 118.142 349.81C99.9829 354.65 82.6044 367.593 72.7697 379.818C46.1547 412.904 48.3232 463.774 73.3985 493.207C119.451 547.264 166.853 514.192 186.561 531.643C214.832 556.676 167.608 568.987 151.368 628.82C144.787 653.068 155.937 670.715 129.657 680.75C104.581 690.326 97.4337 688.304 78.9394 706.009C35.0995 747.979 43.1057 819.16 99.0854 851.253C119.066 862.708 137.174 862.849 164.091 859.071C209.985 852.63 184.602 903.232 230.818 939.274C264.828 965.796 305.691 964.549 341.302 939.087C356.974 927.883 362.872 906.637 380.362 904.956C394.247 903.623 408.001 912.988 451.252 909.13C473.665 907.13 490.055 893.828 504.975 887.872C525.238 879.783 532.633 896.699 568.344 894.573Z" fill="#4ADE80"/>
<path fill-rule="evenodd" clip-rule="evenodd" d="M1768.66 890.807C1812.88 894.484 2044.3 885.596 2062.11 894.099C2064.38 916.817 2070.62 1040.86 2063.39 1053.34C2059.35 1057.73 2042.7 1056.09 2036.83 1056.07C1931.48 1055.54 1956.63 1084.07 1953.77 945.946L1893.03 947.054L1893.34 1229.24L1953.55 1228.7C1954.86 1206.74 1948.79 1121.96 1956.55 1110.28C1967.34 1102.86 1997.34 1107.53 2012.4 1107.53C2032.71 1107.53 2062.7 1103.41 2064.55 1113.48L2064.07 1229.36L2128.11 1230.77L2128.7 892.377C2128.66 877.104 2126.27 869.582 2137.84 863.953C2163.21 851.608 2173.98 871.384 2195.05 875.533C2218.76 880.201 2240.66 878.82 2259.14 868.046C2280.24 855.752 2283.08 847.199 2290.42 824.053C2271.93 809.609 2225.43 813.321 2202.96 823.861C2162.42 842.871 2176.3 857.632 2129.71 860.492C2129.03 845.382 2126.61 841.4 2135.52 832.305C2151.49 815.995 2176.23 825.116 2220.34 809.013C2259.33 794.782 2279.64 766.29 2274.87 722.751C2252.63 720.722 2239.56 714.904 2219.34 723.194C2171.52 742.793 2171.77 767.564 2156.84 797.425C2144.87 821.372 2145.68 813.98 2133.11 825.253C2127.26 830.491 2130.77 829.796 2125.6 832.856C2124.89 816.551 2128.88 813.454 2110.44 813.294L1863.34 813.886L1862.19 713.797L2028.37 713.633C2029.7 700.161 2035.63 639.409 2023.73 636.889C2012.17 634.44 1876.89 635.937 1863.32 635.821L1862.16 554.636L2048.22 554.524L2049.52 475.467L1767.43 475.148C1765.29 514.294 1765.26 885.372 1768.66 890.807Z" fill="white"/>
<path fill-rule="evenodd" clip-rule="evenodd" d="M1329.18 387.902L1416.23 388.233L1445.26 305.806L1595.19 305.664C1596.82 313.457 1621.52 385.142 1622.84 387.46L1713.92 388.567C1713.68 371.237 1653.63 217.204 1643.94 192.871C1631.49 161.622 1617.55 128.321 1604.83 97.8462C1591.94 66.9614 1577.55 39.7783 1562.97 5.45414L1480.11 5.16992C1456.63 53.6393 1330.11 351.731 1329.18 387.902Z" fill="white"/>
<path fill-rule="evenodd" clip-rule="evenodd" d="M1047.63 227.871C1049.07 217.54 1053.1 221.665 1081.49 221.666C1109.14 221.668 1179.81 223.231 1198.64 220.794L1198.84 155.159L1046.89 149.481L1045.64 86.0076C1047.18 78.8019 1046.61 80.9616 1050.03 77.4991C1067.19 78.8076 1212.22 81.0534 1217.77 75.7239C1222.41 69.1902 1220.23 52.4042 1220.22 42.1908C1220.21 30.0162 1221.37 16.7039 1219.16 4.82637L976.184 4.00659C970.103 4.10902 965.645 3.82366 962.862 6.78946C958.926 12.0268 958.102 353.804 961.092 387.499C979.526 390.897 1223.28 389.848 1230.59 386.91C1234.77 383.324 1233.17 326.981 1232.49 323.614C1232.36 322.953 1232.11 322.244 1231.96 321.675L1230.57 318.123C1213.21 309.457 1082.38 320.478 1048.04 315.218L1047.63 227.871Z" fill="white"/>
<path fill-rule="evenodd" clip-rule="evenodd" d="M1314.39 491.762L1315.1 893.073L1407.34 893.321C1417.18 862.065 1401.69 758.816 1410.34 720.412L1573.03 719.952C1574.07 703.706 1575.29 655.173 1572.01 641.65L1418.29 641.722C1407.53 640.485 1408.98 641.071 1408.98 628.587L1409.2 555.468L1595.14 554.41L1595.53 476.407C1575.01 471.788 1387.04 475.783 1335.49 475.001C1313.64 474.669 1314.39 471.434 1314.39 491.762Z" fill="white"/>
<path fill-rule="evenodd" clip-rule="evenodd" d="M1834.89 387.758L1920.9 388.471L1921.79 230.537L2072.52 229.961L2072.99 158.256L1922.09 157.646L1921.72 78.5615L2091.57 77.8774L2092.22 4.67215L1835.75 4.20728L1834.89 387.758Z" fill="white"/>
<path fill-rule="evenodd" clip-rule="evenodd" d="M1112.78 1230.06L1176.78 1230.73C1186.08 1217.36 1190.45 1179.74 1201 1170.54C1208.97 1166.96 1300.97 1166.89 1308.9 1170.54C1315.24 1174.52 1317.09 1186.37 1321.78 1199.06C1324.86 1207.4 1329.39 1221.86 1331.93 1230.27L1398.35 1230.75C1395.89 1199.71 1301.31 966.549 1286.73 945.27L1225.65 944.802C1216.69 958.984 1202.56 994.38 1195.35 1011.07L1138.71 1155.2C1130.55 1177.58 1117.21 1208.78 1112.78 1230.06Z" fill="white"/>
<path fill-rule="evenodd" clip-rule="evenodd" d="M1022.07 893.094L1113.89 893.296C1117.28 879.402 1115.13 617.551 1115.13 579.721C1115.13 559.745 1119.41 488.888 1113.04 477.149C1103.51 471.974 1037.62 474.273 1021.41 475.6C1018.13 496.982 1019.77 885.707 1022.07 893.094Z" fill="white"/>
<path fill-rule="evenodd" clip-rule="evenodd" d="M1091.13 1228.08L1093.02 1219.99C1096.1 1173.62 1091.55 1176.42 1076.81 1176.19C1047.14 1175.72 974.627 1178.46 955.052 1175.34L954.45 1109.36L1064.4 1105.05C1067.67 1097.15 1067.56 1066.92 1064.49 1058.6C1041.5 1058.6 969.401 1063.17 952.785 1055.29C950.746 1042.39 950.232 1009.02 953.722 996.961L1081.32 996.162L1081.25 947.419L893.031 947.162L892.832 1227.71L1091.13 1228.08Z" fill="white"/>
<path fill-rule="evenodd" clip-rule="evenodd" d="M1612.24 999.135L1698.58 1000.14L1699.01 1230.24L1762.87 1230.57L1763.08 1000.3L1849.65 999.61L1849.83 945.573L1613.06 944.753L1612.24 999.135Z" fill="white"/>
<path fill-rule="evenodd" clip-rule="evenodd" d="M1438.32 1230.54L1629.44 1230.79L1630.16 1177.22C1602.96 1169.38 1520.54 1183.17 1504.43 1173.07C1498.87 1167.24 1502.6 969.649 1502.38 945.672L1438.33 945.1L1438.32 1230.54Z" fill="white"/>
<path fill-rule="evenodd" clip-rule="evenodd" d="M2125.94 805.519C2128.03 804.141 2148.23 771.591 2153.98 765.252C2188.77 726.956 2224.08 714.898 2237.17 667.31C2239.19 659.954 2239.66 645.215 2234.02 638.806C2226.66 630.446 2129.15 613.686 2136.53 750.887C2137.38 766.527 2141.19 768.94 2133.83 786.593C2133.53 787.299 2132.6 789.254 2132.29 789.935C2132.05 790.441 2131.72 791.063 2131.48 791.563L2125.94 805.519Z" fill="white"/>
<path fill-rule="evenodd" clip-rule="evenodd" d="M1465.38 236.072L1572.16 237.189C1572.35 221.679 1537.67 139.459 1528.21 113.344C1525.01 104.515 1526.24 102.175 1518.84 97.6992L1465.38 236.072Z" fill="#4ADE80"/>
<path fill-rule="evenodd" clip-rule="evenodd" d="M373.239 1210.1C379.98 1214.45 562.491 1203.96 566.064 1200.34C569.816 1196.54 571.018 1108.45 565.949 1100.36C563.328 1104.57 562.892 1107.48 561.154 1112.34C558.754 1119.05 558.079 1120.37 555.343 1125.89C524.056 1189.11 457.584 1190.41 399.769 1198.6C373.29 1202.35 374.224 1199.23 373.239 1210.1Z" fill="#4ADE80"/>
<path fill-rule="evenodd" clip-rule="evenodd" d="M2064.55 1113.48C2062.7 1103.41 2032.71 1107.53 2012.4 1107.53C1997.34 1107.53 1967.34 1102.86 1956.55 1110.28C1948.79 1121.96 1954.86 1206.74 1953.55 1228.7L1893.34 1229.24L1893.03 947.054L1953.77 945.946C1956.63 1084.07 1931.48 1055.54 2036.83 1056.07C2042.7 1056.09 2059.35 1057.73 2063.39 1053.34C2070.62 1040.86 2064.38 916.817 2062.11 894.099C2044.3 885.596 1812.88 894.484 1768.66 890.807C1771.77 897.176 1787.84 894.226 1802.27 894.212C1855.1 894.156 2034.01 891.418 2058.82 895.189C2059.07 917.835 2067.17 1039.32 2059.85 1049.95C2053.14 1054.21 1972.96 1052.81 1959.15 1051.28L1957.69 945.369C1945.56 941.422 1903.42 942.16 1890.69 944.533C1887.12 957.875 1887.46 1219.88 1890.97 1231.15C1904.21 1232.93 1944.9 1233.58 1957.03 1230.41L1957.92 1111.73C1981.29 1111.05 2045.08 1108.98 2064.55 1113.48Z" fill="white"/>
<path fill-rule="evenodd" clip-rule="evenodd" d="M1215.35 1117.93L1292.96 1118.42C1294.04 1110.85 1267.37 1033.69 1257.49 1019.21C1257.18 1018.74 1256.53 1018.01 1256.26 1017.64C1255.98 1017.27 1255.43 1016.58 1254.97 1016.1C1251.98 1018.78 1253.77 1016.71 1251.34 1020.53C1250.92 1021.19 1248.32 1026.4 1248.06 1027.02C1246.23 1031.41 1244.72 1036.28 1243.49 1039.62C1237.86 1055.01 1215.18 1109.49 1215.35 1117.93Z" fill="#4ADE80"/>
<path fill-rule="evenodd" clip-rule="evenodd" d="M1091.13 1228.08L892.832 1227.71L893.031 947.162L1081.25 947.419L1081.32 996.162L953.722 996.961C950.232 1009.02 950.746 1042.39 952.785 1055.29C969.401 1063.17 1041.5 1058.6 1064.49 1058.6C1067.56 1066.92 1067.67 1097.15 1064.4 1105.05L954.45 1109.36L1067.61 1108.44C1072.13 1097.78 1071.56 1066.03 1068.01 1054.96C1043.25 1051.08 972.818 1058.64 956.354 1052.15L955.883 1002C973.644 995.638 1055.87 1003.17 1083.1 999.315L1084.42 944.751L889.797 944.136C886.201 968.456 889.064 1155.82 888.876 1212.66C888.789 1238.99 883.287 1231.4 991.087 1231.4L1066.84 1231.41C1077.05 1231.5 1085.31 1233.2 1091.13 1228.08Z" fill="white"/>
<path fill-rule="evenodd" clip-rule="evenodd" d="M643.762 1233.32L654.704 1230.6L655.181 1112.12L757.948 1112.25L758.081 1222.44C759.664 1229.98 758.164 1226.57 762.399 1230.38L761.691 1115.01C760.632 1110.49 760.607 1112.01 758.867 1109.67C749.422 1105.76 667.342 1106.55 652.822 1109.04C647.266 1131.81 652.522 1198.62 651.204 1227.2C650.87 1227.45 646.862 1230.56 646.851 1230.57L643.762 1233.32Z" fill="white"/>
<path fill-rule="evenodd" clip-rule="evenodd" d="M1047.63 227.871C1077.55 217.956 1170.26 232.808 1202.05 223.953C1202.95 216.603 1205.82 159.394 1199.66 153.495C1193.47 147.566 1066.76 150.871 1049.21 150.733L1050.03 77.4991C1046.61 80.9616 1047.18 78.8019 1045.64 86.0076L1046.89 149.481L1198.84 155.159L1198.64 220.794C1179.81 223.231 1109.14 221.668 1081.49 221.666C1053.1 221.665 1049.07 217.54 1047.63 227.871Z" fill="white"/>
</svg>
